# xmcd
#
# Track frame offsets: 
#        150
#        22617
#        36040
#        58020
#        76505
#        96192
#        115102
#        131080
#        151300
#        167957
#        184857
#        197640
#        214587
#        234377
#        246962
#        260985
#        285057
#        300642
#        313852
#
# Disc length: 4414 seconds
#
# Revision: 5
# Processed by: cddbd v1.5.2PL0 Copyright (c) Steve Scherf et al.
# Submitted via: ExactAudioCopy v0.99pb5
#
DISCID=f8113c13
DTITLE=(Various) - The Alligator Records 25th Anniversary Collection (
DTITLE=Disc 2)
DYEAR=1996
DGENRE=Blues
TTITLE0=Evil - Koko Taylor
TTITLE1=Got Lucky Last Night - Lonnie Brooks
TTITLE2=Blues Lover - Bob Margolin
TTITLE3=I Could Deal with It - Little Charlie and The Nightcats
TTITLE4=Cherry Red Wine - Luther Allison
TTITLE5=Hard Lovin' Mama - Katie Webster
TTITLE6=She Puts Me In The Mood - Elvin Bishop
TTITLE7=Low Down Dirty Shame - Carey Bell
TTITLE8=Six O'Clock Blues - Lucky Peterson
TTITLE9=Keep Your Motor Running - Dave Hole
TTITLE10=Roots Woman - Corey Harris
TTITLE11=Can't Recall A Time - Michael Hill's Blues Mob
TTITLE12=Baby, Baby, Baby - Delbert McClinton
TTITLE13=Jack The Ripper - Roy Buchanan and Delbert McClinton
TTITLE14=Got To Find My Baby - Johnny Heartsman
TTITLE15=Love, Life And Money - Johnny Winter
TTITLE16=Look On Yonder's Wall - Hound Dog Taylor
TTITLE17=Somebody Loan Me A Dime - Fenton Robinson
TTITLE18=We're Outta Here - Clarence 'Gatemouth' Brown
EXTD=
EXTT0=
EXTT1=
EXTT2=
EXTT3=
EXTT4=
EXTT5=
EXTT6=
EXTT7=
EXTT8=
EXTT9=
EXTT10=
EXTT11=
EXTT12=
EXTT13=
EXTT14=
EXTT15=
EXTT16=
EXTT17=
EXTT18=
PLAYORDER=
